<mxfile host="app.diagrams.net" modified="2020-03-24T11:30:14.183Z" agent="Mozilla/5.0 (Windows NT 10.0; WOW64) AppleWebKit/537.36 (KHTML, like Gecko) Chrome/70.0.3538.25 Safari/537.36 Core/1.70.3741.400 QQBrowser/10.5.3863.400" etag="-SK5n_EfgyC9ZvysRhGE" version="12.9.1" type="github" pages="3">
  <diagram name="货箱/架信息管理模块" id="货箱/架信息管理模块">
    <mxGraphModel dx="1005" dy="577" grid="1" gridSize="10" guides="1" tooltips="1" connect="1" arrows="1" fold="1" page="1" pageScale="1" pageWidth="500" pageHeight="800" math="0" shadow="0">
      <root>
        <mxCell id="0" />
        <mxCell id="1" value="Background" parent="0" />
        <mxCell id="2" value="货箱/货架信息管理模块" style="fontSize=12;fontStyle=0" parent="1" vertex="1">
          <mxGeometry x="315" y="80" width="210" height="50" as="geometry" />
        </mxCell>
        <mxCell id="3" value="货箱信息管理" style="fontStyle=0;fontSize=12;" parent="1" vertex="1">
          <mxGeometry x="140" y="210" width="170" height="50" as="geometry" />
        </mxCell>
        <mxCell id="4" value="货架信息管理" style="fontStyle=0;fontSize=12;" parent="1" vertex="1">
          <mxGeometry x="530" y="210" width="170" height="50" as="geometry" />
        </mxCell>
        <mxCell id="5" value="查询&#xa;货箱&#xa;信息" style="fontStyle=0;fontSize=12;" parent="1" vertex="1">
          <mxGeometry x="60" y="330" width="60" height="110" as="geometry" />
        </mxCell>
        <mxCell id="6" value="添加&#xa;货箱&#xa;信息" style="fontStyle=0;fontSize=12;" parent="1" vertex="1">
          <mxGeometry x="150" y="330" width="60" height="110" as="geometry" />
        </mxCell>
        <mxCell id="7" value="修改&#xa;货箱&#xa;信息" style="fontStyle=0;fontSize=12;" parent="1" vertex="1">
          <mxGeometry x="240" y="330" width="60" height="110" as="geometry" />
        </mxCell>
        <mxCell id="8" value="删除&#xa;货箱&#xa;信息" style="fontStyle=0;fontSize=12;" parent="1" vertex="1">
          <mxGeometry x="330" y="330" width="60" height="110" as="geometry" />
        </mxCell>
        <mxCell id="9" value="查询&#xa;货架&#xa;信息" style="fontSize=12;fontStyle=0" parent="1" vertex="1">
          <mxGeometry x="450" y="330" width="60" height="110" as="geometry" />
        </mxCell>
        <mxCell id="10" value="添加&#xa;货架&#xa;信息" style="fontStyle=0;fontSize=12;" parent="1" vertex="1">
          <mxGeometry x="540" y="330" width="60" height="110" as="geometry" />
        </mxCell>
        <mxCell id="11" value="修改&#xa;货架&#xa;信息" style="fontStyle=0;fontSize=12;" parent="1" vertex="1">
          <mxGeometry x="630" y="330" width="60" height="110" as="geometry" />
        </mxCell>
        <mxCell id="12" value="删除&#xa;货架&#xa;信息" style="fontStyle=0;fontSize=12;" parent="1" vertex="1">
          <mxGeometry x="720" y="330" width="60" height="110" as="geometry" />
        </mxCell>
        <mxCell id="42" style="vsdxID=28;edgeStyle=none;startArrow=none;endArrow=none;startSize=5;endSize=5;strokeColor=#000000;spacingTop=0;spacingBottom=0;spacingLeft=0;spacingRight=0;verticalAlign=middle;html=1;labelBackgroundColor=#ffffff;rounded=1;fontStyle=0;fontSize=12;" parent="1" edge="1">
          <mxGeometry relative="1" as="geometry">
            <mxPoint x="-135" y="102" as="offset" />
            <Array as="points" />
            <mxPoint x="480" y="295" as="sourcePoint" />
            <mxPoint x="750" y="295" as="targetPoint" />
          </mxGeometry>
        </mxCell>
        <mxCell id="41" style="vsdxID=22;edgeStyle=none;startArrow=none;endArrow=none;startSize=5;endSize=5;strokeColor=#000000;spacingTop=0;spacingBottom=0;spacingLeft=0;spacingRight=0;verticalAlign=middle;html=1;labelBackgroundColor=#ffffff;rounded=1;fontStyle=0;fontSize=12;" parent="1" edge="1">
          <mxGeometry relative="1" as="geometry">
            <mxPoint x="-135" y="102" as="offset" />
            <Array as="points" />
            <mxPoint x="90" y="295" as="sourcePoint" />
            <mxPoint x="360" y="295" as="targetPoint" />
          </mxGeometry>
        </mxCell>
        <mxCell id="40" style="vsdxID=14;edgeStyle=none;startArrow=none;endArrow=none;startSize=5;endSize=5;strokeColor=#000000;spacingTop=0;spacingBottom=0;spacingLeft=0;spacingRight=0;verticalAlign=middle;html=1;labelBackgroundColor=#ffffff;rounded=1;fontStyle=0;fontSize=12;" parent="1" edge="1">
          <mxGeometry relative="1" as="geometry">
            <mxPoint x="-195" y="102" as="offset" />
            <Array as="points" />
            <mxPoint x="225" y="160" as="sourcePoint" />
            <mxPoint x="615" y="160" as="targetPoint" />
          </mxGeometry>
        </mxCell>
        <mxCell id="14" style="fontStyle=0;fontSize=12;" parent="1" vertex="1">
          <mxGeometry x="420" y="160" as="geometry" />
        </mxCell>
        <mxCell id="15" style="vsdxID=13;edgeStyle=none;startArrow=none;endArrow=none;startSize=5;endSize=5;strokeColor=#000000;spacingTop=0;spacingBottom=0;spacingLeft=0;spacingRight=0;verticalAlign=middle;html=1;labelBackgroundColor=#ffffff;rounded=1;entryX=0.5;entryY=1;entryDx=0;entryDy=0;fontStyle=0;fontSize=12;" parent="1" source="14" target="2" edge="1">
          <mxGeometry relative="1" as="geometry">
            <mxPoint y="121" as="offset" />
            <Array as="points" />
          </mxGeometry>
        </mxCell>
        <mxCell id="16" style="fontStyle=0;fontSize=12;" parent="1" vertex="1">
          <mxGeometry x="225" y="160" as="geometry" />
        </mxCell>
        <mxCell id="17" style="vsdxID=15;edgeStyle=none;startArrow=none;endArrow=none;startSize=5;endSize=5;strokeColor=#000000;spacingTop=0;spacingBottom=0;spacingLeft=0;spacingRight=0;verticalAlign=middle;html=1;labelBackgroundColor=#ffffff;rounded=1;exitX=0.5;exitY=0;exitDx=0;exitDy=0;exitPerimeter=0;fontStyle=0;fontSize=12;" parent="1" source="3" target="16" edge="1">
          <mxGeometry relative="1" as="geometry">
            <mxPoint y="121" as="offset" />
            <Array as="points" />
          </mxGeometry>
        </mxCell>
        <mxCell id="18" style="fontStyle=0;fontSize=12;" parent="1" vertex="1">
          <mxGeometry x="615" y="160" as="geometry" />
        </mxCell>
        <mxCell id="19" style="vsdxID=16;edgeStyle=none;startArrow=none;endArrow=none;startSize=5;endSize=5;strokeColor=#000000;spacingTop=0;spacingBottom=0;spacingLeft=0;spacingRight=0;verticalAlign=middle;html=1;labelBackgroundColor=#ffffff;rounded=1;exitX=0.5;exitY=0;exitDx=0;exitDy=0;exitPerimeter=0;fontStyle=0;fontSize=12;" parent="1" source="4" target="18" edge="1">
          <mxGeometry relative="1" as="geometry">
            <mxPoint y="121" as="offset" />
            <Array as="points" />
          </mxGeometry>
        </mxCell>
        <mxCell id="20" style="fontStyle=0;fontSize=12;" parent="1" vertex="1">
          <mxGeometry x="225" y="295" as="geometry" />
        </mxCell>
        <mxCell id="21" style="vsdxID=17;edgeStyle=none;startArrow=none;endArrow=none;startSize=5;endSize=5;strokeColor=#000000;spacingTop=0;spacingBottom=0;spacingLeft=0;spacingRight=0;verticalAlign=middle;html=1;labelBackgroundColor=#ffffff;rounded=1;entryX=0.5;entryY=1;entryDx=0;entryDy=0;entryPerimeter=0;fontStyle=0;fontSize=12;" parent="1" source="20" target="3" edge="1">
          <mxGeometry relative="1" as="geometry">
            <mxPoint y="119" as="offset" />
            <Array as="points" />
          </mxGeometry>
        </mxCell>
        <mxCell id="22" style="fontStyle=0;fontSize=12;" parent="1" vertex="1">
          <mxGeometry x="90" y="295" as="geometry" />
        </mxCell>
        <mxCell id="23" style="vsdxID=18;edgeStyle=none;startArrow=none;endArrow=none;startSize=5;endSize=5;strokeColor=#000000;spacingTop=0;spacingBottom=0;spacingLeft=0;spacingRight=0;verticalAlign=middle;html=1;labelBackgroundColor=#ffffff;rounded=1;entryX=0.5;entryY=0;entryDx=0;entryDy=0;entryPerimeter=0;fontStyle=0;fontSize=12;" parent="1" source="22" target="5" edge="1">
          <mxGeometry relative="1" as="geometry">
            <mxPoint y="118" as="offset" />
            <Array as="points" />
          </mxGeometry>
        </mxCell>
        <mxCell id="24" style="fontStyle=0;fontSize=12;" parent="1" vertex="1">
          <mxGeometry x="180" y="295" as="geometry" />
        </mxCell>
        <mxCell id="25" style="vsdxID=19;edgeStyle=none;startArrow=none;endArrow=none;startSize=5;endSize=5;strokeColor=#000000;spacingTop=0;spacingBottom=0;spacingLeft=0;spacingRight=0;verticalAlign=middle;html=1;labelBackgroundColor=#ffffff;rounded=1;entryX=0.5;entryY=0;entryDx=0;entryDy=0;entryPerimeter=0;fontStyle=0;fontSize=12;" parent="1" source="24" target="6" edge="1">
          <mxGeometry relative="1" as="geometry">
            <mxPoint y="118" as="offset" />
            <Array as="points" />
          </mxGeometry>
        </mxCell>
        <mxCell id="26" style="fontStyle=0;fontSize=12;" parent="1" vertex="1">
          <mxGeometry x="270" y="295" as="geometry" />
        </mxCell>
        <mxCell id="27" style="vsdxID=20;edgeStyle=none;startArrow=none;endArrow=none;startSize=5;endSize=5;strokeColor=#000000;spacingTop=0;spacingBottom=0;spacingLeft=0;spacingRight=0;verticalAlign=middle;html=1;labelBackgroundColor=#ffffff;rounded=1;exitX=0.5;exitY=0;exitDx=0;exitDy=0;exitPerimeter=0;fontStyle=0;fontSize=12;" parent="1" source="7" target="26" edge="1">
          <mxGeometry relative="1" as="geometry">
            <mxPoint y="119" as="offset" />
            <Array as="points" />
          </mxGeometry>
        </mxCell>
        <mxCell id="28" style="fontStyle=0;fontSize=12;" parent="1" vertex="1">
          <mxGeometry x="360" y="295" as="geometry" />
        </mxCell>
        <mxCell id="29" style="vsdxID=21;edgeStyle=none;startArrow=none;endArrow=none;startSize=5;endSize=5;strokeColor=#000000;spacingTop=0;spacingBottom=0;spacingLeft=0;spacingRight=0;verticalAlign=middle;html=1;labelBackgroundColor=#ffffff;rounded=1;entryX=0.5;entryY=0;entryDx=0;entryDy=0;entryPerimeter=0;fontStyle=0;fontSize=12;" parent="1" source="28" target="8" edge="1">
          <mxGeometry relative="1" as="geometry">
            <mxPoint y="118" as="offset" />
            <Array as="points" />
          </mxGeometry>
        </mxCell>
        <mxCell id="30" style="fontStyle=0;fontSize=12;" parent="1" vertex="1">
          <mxGeometry x="615" y="295" as="geometry" />
        </mxCell>
        <mxCell id="31" style="vsdxID=23;edgeStyle=none;startArrow=none;endArrow=none;startSize=5;endSize=5;strokeColor=#000000;spacingTop=0;spacingBottom=0;spacingLeft=0;spacingRight=0;verticalAlign=middle;html=1;labelBackgroundColor=#ffffff;rounded=1;entryX=0.5;entryY=1;entryDx=0;entryDy=0;entryPerimeter=0;fontStyle=0;fontSize=12;" parent="1" source="30" target="4" edge="1">
          <mxGeometry relative="1" as="geometry">
            <mxPoint y="119" as="offset" />
            <Array as="points" />
          </mxGeometry>
        </mxCell>
        <mxCell id="32" style="fontStyle=0;fontSize=12;" parent="1" vertex="1">
          <mxGeometry x="480" y="295" as="geometry" />
        </mxCell>
        <mxCell id="33" style="vsdxID=24;edgeStyle=none;startArrow=none;endArrow=none;startSize=5;endSize=5;strokeColor=#000000;spacingTop=0;spacingBottom=0;spacingLeft=0;spacingRight=0;verticalAlign=middle;html=1;labelBackgroundColor=#ffffff;rounded=1;entryX=0.5;entryY=0;entryDx=0;entryDy=0;entryPerimeter=0;fontStyle=0;fontSize=12;" parent="1" source="32" target="9" edge="1">
          <mxGeometry relative="1" as="geometry">
            <mxPoint y="118" as="offset" />
            <Array as="points" />
          </mxGeometry>
        </mxCell>
        <mxCell id="34" style="fontStyle=0;fontSize=12;" parent="1" vertex="1">
          <mxGeometry x="570" y="295" as="geometry" />
        </mxCell>
        <mxCell id="35" style="vsdxID=25;edgeStyle=none;startArrow=none;endArrow=none;startSize=5;endSize=5;strokeColor=#000000;spacingTop=0;spacingBottom=0;spacingLeft=0;spacingRight=0;verticalAlign=middle;html=1;labelBackgroundColor=#ffffff;rounded=1;exitX=0.5;exitY=0;exitDx=0;exitDy=0;exitPerimeter=0;fontStyle=0;fontSize=12;" parent="1" source="10" target="34" edge="1">
          <mxGeometry relative="1" as="geometry">
            <mxPoint y="119" as="offset" />
            <Array as="points" />
          </mxGeometry>
        </mxCell>
        <mxCell id="36" style="fontStyle=0;fontSize=12;" parent="1" vertex="1">
          <mxGeometry x="660" y="295" as="geometry" />
        </mxCell>
        <mxCell id="37" style="vsdxID=26;edgeStyle=none;startArrow=none;endArrow=none;startSize=5;endSize=5;strokeColor=#000000;spacingTop=0;spacingBottom=0;spacingLeft=0;spacingRight=0;verticalAlign=middle;html=1;labelBackgroundColor=#ffffff;rounded=1;entryX=0.5;entryY=0;entryDx=0;entryDy=0;entryPerimeter=0;fontStyle=0;fontSize=12;" parent="1" source="36" target="11" edge="1">
          <mxGeometry relative="1" as="geometry">
            <mxPoint y="118" as="offset" />
            <Array as="points" />
          </mxGeometry>
        </mxCell>
        <mxCell id="38" style="fontStyle=0;fontSize=12;" parent="1" vertex="1">
          <mxGeometry x="750" y="295" as="geometry" />
        </mxCell>
        <mxCell id="39" style="vsdxID=27;edgeStyle=none;startArrow=none;endArrow=none;startSize=5;endSize=5;strokeColor=#000000;spacingTop=0;spacingBottom=0;spacingLeft=0;spacingRight=0;verticalAlign=middle;html=1;labelBackgroundColor=#ffffff;rounded=1;exitX=0.5;exitY=0;exitDx=0;exitDy=0;exitPerimeter=0;fontStyle=0;fontSize=12;" parent="1" source="12" target="38" edge="1">
          <mxGeometry relative="1" as="geometry">
            <mxPoint y="119" as="offset" />
            <Array as="points" />
          </mxGeometry>
        </mxCell>
        <mxCell id="nB3ZAWKdu_IXcya7Cae8-46" style="edgeStyle=orthogonalEdgeStyle;rounded=0;orthogonalLoop=1;jettySize=auto;html=1;exitX=0.5;exitY=1;exitDx=0;exitDy=0;endArrow=none;endFill=0;fontSize=12;" edge="1" parent="1" source="nB3ZAWKdu_IXcya7Cae8-43" target="nB3ZAWKdu_IXcya7Cae8-44">
          <mxGeometry relative="1" as="geometry" />
        </mxCell>
        <mxCell id="nB3ZAWKdu_IXcya7Cae8-43" value="" style="rounded=0;whiteSpace=wrap;html=1;fontSize=12;" vertex="1" parent="1">
          <mxGeometry x="1020" y="60" width="120" height="60" as="geometry" />
        </mxCell>
        <mxCell id="nB3ZAWKdu_IXcya7Cae8-44" value="" style="rounded=0;whiteSpace=wrap;html=1;fontSize=12;" vertex="1" parent="1">
          <mxGeometry x="1020" y="280" width="120" height="60" as="geometry" />
        </mxCell>
      </root>
    </mxGraphModel>
  </diagram>
  <diagram name="样品库监控信息管理模块" id="样品库监控信息管理模块">
    <mxGraphModel dx="1422" dy="776" grid="1" gridSize="10" guides="1" tooltips="1" connect="1" arrows="1" fold="1" page="1" pageScale="1" pageWidth="500" pageHeight="800" math="0" shadow="0">
      <root>
        <mxCell id="0" />
        <mxCell id="1" value="Background" parent="0" />
        <mxCell id="2" value="样品库监控信息管理模块" style="fontStyle=1;fontSize=25;" parent="1" vertex="1">
          <mxGeometry x="320" y="40" width="360" height="80" as="geometry" />
        </mxCell>
        <mxCell id="3" value="样品借出提醒" style="fontStyle=1;fontSize=25;" parent="1" vertex="1">
          <mxGeometry x="700" y="200" width="240" height="80" as="geometry" />
        </mxCell>
        <mxCell id="4" value="样品余量提醒" style="fontStyle=1;fontSize=25;" parent="1" vertex="1">
          <mxGeometry x="380" y="200" width="240" height="80" as="geometry" />
        </mxCell>
        <mxCell id="5" value="维护状态提醒" style="fontStyle=1;fontSize=25;" parent="1" vertex="1">
          <mxGeometry x="60" y="200" width="240" height="80" as="geometry" />
        </mxCell>
        <mxCell id="6" value="3D&#xa;样品库&#xa;状态&#xa;显示" style="fontStyle=1;fontSize=25;" parent="1" vertex="1">
          <mxGeometry x="80" y="360" width="80" height="160" as="geometry" />
        </mxCell>
        <mxCell id="7" value="维护&#xa;状态&#xa;文字&#xa;提醒" style="fontStyle=1;fontSize=25;" parent="1" vertex="1">
          <mxGeometry x="200" y="360" width="80" height="160" as="geometry" />
        </mxCell>
        <mxCell id="20" style="vsdxID=40;edgeStyle=none;startArrow=none;endArrow=none;startSize=5;endSize=5;strokeColor=#000000;spacingTop=0;spacingBottom=0;spacingLeft=0;spacingRight=0;verticalAlign=middle;html=1;labelBackgroundColor=#ffffff;rounded=1;" parent="1" edge="1">
          <mxGeometry relative="1" as="geometry">
            <mxPoint x="60" y="102" as="offset" />
            <Array as="points" />
            <mxPoint x="240" y="320" as="sourcePoint" />
            <mxPoint x="120" y="320" as="targetPoint" />
          </mxGeometry>
        </mxCell>
        <mxCell id="19" style="vsdxID=38;edgeStyle=none;startArrow=none;endArrow=none;startSize=5;endSize=5;strokeColor=#000000;spacingTop=0;spacingBottom=0;spacingLeft=0;spacingRight=0;verticalAlign=middle;html=1;labelBackgroundColor=#ffffff;rounded=1;" parent="1" edge="1">
          <mxGeometry relative="1" as="geometry">
            <mxPoint x="-320" y="102" as="offset" />
            <Array as="points" />
            <mxPoint x="180" y="160" as="sourcePoint" />
            <mxPoint x="820" y="160" as="targetPoint" />
          </mxGeometry>
        </mxCell>
        <mxCell id="8" style="vsdxID=35;edgeStyle=none;startArrow=none;endArrow=none;startSize=5;endSize=5;strokeColor=#000000;spacingTop=0;spacingBottom=0;spacingLeft=0;spacingRight=0;verticalAlign=middle;html=1;labelBackgroundColor=#ffffff;rounded=1;exitX=0.5;exitY=0;exitDx=0;exitDy=0;exitPerimeter=0;entryX=0.5;entryY=1;entryDx=0;entryDy=0;entryPerimeter=0;" parent="1" source="4" target="2" edge="1">
          <mxGeometry relative="1" as="geometry">
            <mxPoint y="141" as="offset" />
            <Array as="points" />
          </mxGeometry>
        </mxCell>
        <mxCell id="9" parent="1" vertex="1">
          <mxGeometry x="180" y="160" as="geometry" />
        </mxCell>
        <mxCell id="10" style="vsdxID=36;edgeStyle=none;startArrow=none;endArrow=none;startSize=5;endSize=5;strokeColor=#000000;spacingTop=0;spacingBottom=0;spacingLeft=0;spacingRight=0;verticalAlign=middle;html=1;labelBackgroundColor=#ffffff;rounded=1;entryX=0.5;entryY=0;entryDx=0;entryDy=0;entryPerimeter=0;" parent="1" source="9" target="5" edge="1">
          <mxGeometry relative="1" as="geometry">
            <mxPoint y="121" as="offset" />
            <Array as="points" />
          </mxGeometry>
        </mxCell>
        <mxCell id="11" parent="1" vertex="1">
          <mxGeometry x="820" y="160" as="geometry" />
        </mxCell>
        <mxCell id="12" style="vsdxID=37;edgeStyle=none;startArrow=none;endArrow=none;startSize=5;endSize=5;strokeColor=#000000;spacingTop=0;spacingBottom=0;spacingLeft=0;spacingRight=0;verticalAlign=middle;html=1;labelBackgroundColor=#ffffff;rounded=1;entryX=0.5;entryY=0;entryDx=0;entryDy=0;entryPerimeter=0;" parent="1" source="11" target="3" edge="1">
          <mxGeometry relative="1" as="geometry">
            <mxPoint y="121" as="offset" />
            <Array as="points" />
          </mxGeometry>
        </mxCell>
        <mxCell id="13" parent="1" vertex="1">
          <mxGeometry x="180" y="320" as="geometry" />
        </mxCell>
        <mxCell id="14" style="vsdxID=39;edgeStyle=none;startArrow=none;endArrow=none;startSize=5;endSize=5;strokeColor=#000000;spacingTop=0;spacingBottom=0;spacingLeft=0;spacingRight=0;verticalAlign=middle;html=1;labelBackgroundColor=#ffffff;rounded=1;entryX=0.5;entryY=1;entryDx=0;entryDy=0;entryPerimeter=0;" parent="1" source="13" target="5" edge="1">
          <mxGeometry relative="1" as="geometry">
            <mxPoint y="121" as="offset" />
            <Array as="points" />
          </mxGeometry>
        </mxCell>
        <mxCell id="15" parent="1" vertex="1">
          <mxGeometry x="120" y="320" as="geometry" />
        </mxCell>
        <mxCell id="16" style="vsdxID=41;edgeStyle=none;startArrow=none;endArrow=none;startSize=5;endSize=5;strokeColor=#000000;spacingTop=0;spacingBottom=0;spacingLeft=0;spacingRight=0;verticalAlign=middle;html=1;labelBackgroundColor=#ffffff;rounded=1;exitX=0.5;exitY=0;exitDx=0;exitDy=0;exitPerimeter=0;" parent="1" source="6" target="15" edge="1">
          <mxGeometry relative="1" as="geometry">
            <mxPoint y="121" as="offset" />
            <Array as="points" />
          </mxGeometry>
        </mxCell>
        <mxCell id="17" parent="1" vertex="1">
          <mxGeometry x="240" y="320" as="geometry" />
        </mxCell>
        <mxCell id="18" style="vsdxID=42;edgeStyle=none;startArrow=none;endArrow=none;startSize=5;endSize=5;strokeColor=#000000;spacingTop=0;spacingBottom=0;spacingLeft=0;spacingRight=0;verticalAlign=middle;html=1;labelBackgroundColor=#ffffff;rounded=1;exitX=0.5;exitY=0;exitDx=0;exitDy=0;exitPerimeter=0;" parent="1" source="7" target="17" edge="1">
          <mxGeometry relative="1" as="geometry">
            <mxPoint y="121" as="offset" />
            <Array as="points" />
          </mxGeometry>
        </mxCell>
      </root>
    </mxGraphModel>
  </diagram>
  <diagram name="3D样品库模块" id="3D样品库模块">
    <mxGraphModel dx="922" dy="-24" grid="1" gridSize="10" guides="1" tooltips="1" connect="1" arrows="1" fold="1" page="1" pageScale="1" pageWidth="500" pageHeight="800" math="0" shadow="0">
      <root>
        <mxCell id="0" />
        <mxCell id="1" value="Background" parent="0" />
        <mxCell id="2" value="3D样品库模块" style="fontStyle=1;fontSize=25;" parent="1" vertex="1">
          <mxGeometry x="820" y="800" width="360" height="80" as="geometry" />
        </mxCell>
        <mxCell id="3" value="仓库展示" style="fontStyle=1;fontSize=25;" parent="1" vertex="1">
          <mxGeometry x="580" y="960" width="240" height="80" as="geometry" />
        </mxCell>
        <mxCell id="5" value="土壤&#xa;样品&#xa;位置&#xa;显示" style="fontStyle=1;fontSize=25;" parent="1" vertex="1">
          <mxGeometry x="500" y="1120" width="80" height="160" as="geometry" />
        </mxCell>
        <mxCell id="38" style="vsdxID=70;edgeStyle=none;startArrow=none;endArrow=none;startSize=5;endSize=5;strokeColor=#000000;spacingTop=0;spacingBottom=0;spacingLeft=0;spacingRight=0;verticalAlign=middle;html=1;labelBackgroundColor=#ffffff;rounded=1;" parent="1" edge="1">
          <mxGeometry relative="1" as="geometry">
            <mxPoint x="-120" y="102" as="offset" />
            <Array as="points" />
            <mxPoint x="1180" y="1320" as="sourcePoint" />
            <mxPoint x="1420" y="1320" as="targetPoint" />
          </mxGeometry>
        </mxCell>
        <mxCell id="37" style="vsdxID=66;edgeStyle=none;startArrow=none;endArrow=none;startSize=5;endSize=5;strokeColor=#000000;spacingTop=0;spacingBottom=0;spacingLeft=0;spacingRight=0;verticalAlign=middle;html=1;labelBackgroundColor=#ffffff;rounded=1;" parent="1" edge="1">
          <mxGeometry relative="1" as="geometry">
            <mxPoint x="-160" y="102" as="offset" />
            <Array as="points" />
            <mxPoint x="1140" y="1080" as="sourcePoint" />
            <mxPoint x="1460" y="1080" as="targetPoint" />
          </mxGeometry>
        </mxCell>
        <mxCell id="36" style="vsdxID=65;edgeStyle=none;startArrow=none;endArrow=none;startSize=5;endSize=5;strokeColor=#000000;spacingTop=0;spacingBottom=0;spacingLeft=0;spacingRight=0;verticalAlign=middle;html=1;labelBackgroundColor=#ffffff;rounded=1;" parent="1" edge="1">
          <mxGeometry relative="1" as="geometry">
            <mxPoint x="160" y="102" as="offset" />
            <Array as="points" />
            <mxPoint x="860" y="1080" as="sourcePoint" />
            <mxPoint x="540" y="1080" as="targetPoint" />
          </mxGeometry>
        </mxCell>
        <mxCell id="35" style="vsdxID=60;edgeStyle=none;startArrow=none;endArrow=none;startSize=5;endSize=5;strokeColor=#000000;spacingTop=0;spacingBottom=0;spacingLeft=0;spacingRight=0;verticalAlign=middle;html=1;labelBackgroundColor=#ffffff;rounded=1;" parent="1" edge="1">
          <mxGeometry relative="1" as="geometry">
            <mxPoint y="141" as="offset" />
            <Array as="points" />
            <mxPoint x="1299" y="1120" as="sourcePoint" />
            <mxPoint x="1299" y="1040" as="targetPoint" />
          </mxGeometry>
        </mxCell>
        <mxCell id="34" style="vsdxID=58;edgeStyle=none;startArrow=none;endArrow=none;startSize=5;endSize=5;strokeColor=#000000;spacingTop=0;spacingBottom=0;spacingLeft=0;spacingRight=0;verticalAlign=middle;html=1;labelBackgroundColor=#ffffff;rounded=1;" parent="1" edge="1">
          <mxGeometry relative="1" as="geometry">
            <mxPoint x="300" y="102" as="offset" />
            <Array as="points" />
            <mxPoint x="1300" y="920" as="sourcePoint" />
            <mxPoint x="700" y="920" as="targetPoint" />
          </mxGeometry>
        </mxCell>
        <mxCell id="14" parent="1" vertex="1">
          <mxGeometry x="1000" y="920" as="geometry" />
        </mxCell>
        <mxCell id="15" style="vsdxID=55;edgeStyle=none;startArrow=none;endArrow=none;startSize=5;endSize=5;strokeColor=#000000;spacingTop=0;spacingBottom=0;spacingLeft=0;spacingRight=0;verticalAlign=middle;html=1;labelBackgroundColor=#ffffff;rounded=1;entryX=0.5;entryY=1;entryDx=0;entryDy=0;entryPerimeter=0;" parent="1" source="14" target="2" edge="1">
          <mxGeometry relative="1" as="geometry">
            <mxPoint y="121" as="offset" />
            <Array as="points" />
          </mxGeometry>
        </mxCell>
        <mxCell id="16" parent="1" vertex="1">
          <mxGeometry x="700" y="920" as="geometry" />
        </mxCell>
        <mxCell id="17" style="vsdxID=56;edgeStyle=none;startArrow=none;endArrow=none;startSize=5;endSize=5;strokeColor=#000000;spacingTop=0;spacingBottom=0;spacingLeft=0;spacingRight=0;verticalAlign=middle;html=1;labelBackgroundColor=#ffffff;rounded=1;entryX=0.5;entryY=0;entryDx=0;entryDy=0;entryPerimeter=0;" parent="1" source="16" target="3" edge="1">
          <mxGeometry relative="1" as="geometry">
            <mxPoint y="121" as="offset" />
            <Array as="points" />
          </mxGeometry>
        </mxCell>
        <mxCell id="18" parent="1" vertex="1">
          <mxGeometry x="1300" y="920" as="geometry" />
        </mxCell>
        <mxCell id="19" style="vsdxID=57;edgeStyle=none;startArrow=none;endArrow=none;startSize=5;endSize=5;strokeColor=#000000;spacingTop=0;spacingBottom=0;spacingLeft=0;spacingRight=0;verticalAlign=middle;html=1;labelBackgroundColor=#ffffff;rounded=1;entryX=0.5;entryY=0;entryDx=0;entryDy=0;entryPerimeter=0;" parent="1" source="18" edge="1">
          <mxGeometry relative="1" as="geometry">
            <mxPoint y="121" as="offset" />
            <Array as="points" />
            <mxPoint x="1300" y="960" as="targetPoint" />
          </mxGeometry>
        </mxCell>
        <mxCell id="20" style="vsdxID=59;edgeStyle=none;startArrow=none;endArrow=none;startSize=5;endSize=5;strokeColor=#000000;spacingTop=0;spacingBottom=0;spacingLeft=0;spacingRight=0;verticalAlign=middle;html=1;labelBackgroundColor=#ffffff;rounded=1;exitX=0.5;exitY=0;exitDx=0;exitDy=0;exitPerimeter=0;entryX=0.5;entryY=1;entryDx=0;entryDy=0;entryPerimeter=0;" parent="1" target="3" edge="1">
          <mxGeometry relative="1" as="geometry">
            <mxPoint y="141" as="offset" />
            <Array as="points" />
            <mxPoint x="700" y="1120" as="sourcePoint" />
          </mxGeometry>
        </mxCell>
        <mxCell id="21" parent="1" vertex="1">
          <mxGeometry x="540" y="1080" as="geometry" />
        </mxCell>
        <mxCell id="22" style="vsdxID=61;edgeStyle=none;startArrow=none;endArrow=none;startSize=5;endSize=5;strokeColor=#000000;spacingTop=0;spacingBottom=0;spacingLeft=0;spacingRight=0;verticalAlign=middle;html=1;labelBackgroundColor=#ffffff;rounded=1;exitX=0.5;exitY=0;exitDx=0;exitDy=0;exitPerimeter=0;" parent="1" source="5" target="21" edge="1">
          <mxGeometry relative="1" as="geometry">
            <mxPoint y="121" as="offset" />
            <Array as="points" />
          </mxGeometry>
        </mxCell>
        <mxCell id="23" parent="1" vertex="1">
          <mxGeometry x="860" y="1080" as="geometry" />
        </mxCell>
        <mxCell id="24" style="vsdxID=62;edgeStyle=none;startArrow=none;endArrow=none;startSize=5;endSize=5;strokeColor=#000000;spacingTop=0;spacingBottom=0;spacingLeft=0;spacingRight=0;verticalAlign=middle;html=1;labelBackgroundColor=#ffffff;rounded=1;exitX=0.5;exitY=0;exitDx=0;exitDy=0;exitPerimeter=0;" parent="1" target="23" edge="1">
          <mxGeometry relative="1" as="geometry">
            <mxPoint y="121" as="offset" />
            <Array as="points" />
            <mxPoint x="860" y="1120" as="sourcePoint" />
          </mxGeometry>
        </mxCell>
        <mxCell id="25" parent="1" vertex="1">
          <mxGeometry x="1140" y="1080" as="geometry" />
        </mxCell>
        <mxCell id="26" style="vsdxID=63;edgeStyle=none;startArrow=none;endArrow=none;startSize=5;endSize=5;strokeColor=#000000;spacingTop=0;spacingBottom=0;spacingLeft=0;spacingRight=0;verticalAlign=middle;html=1;labelBackgroundColor=#ffffff;rounded=1;entryX=0.5;entryY=0;entryDx=0;entryDy=0;entryPerimeter=0;" parent="1" source="25" edge="1">
          <mxGeometry relative="1" as="geometry">
            <mxPoint y="121" as="offset" />
            <Array as="points" />
            <mxPoint x="1140" y="1120" as="targetPoint" />
          </mxGeometry>
        </mxCell>
        <mxCell id="27" parent="1" vertex="1">
          <mxGeometry x="1460" y="1080" as="geometry" />
        </mxCell>
        <mxCell id="28" style="vsdxID=64;edgeStyle=none;startArrow=none;endArrow=none;startSize=5;endSize=5;strokeColor=#000000;spacingTop=0;spacingBottom=0;spacingLeft=0;spacingRight=0;verticalAlign=middle;html=1;labelBackgroundColor=#ffffff;rounded=1;entryX=0.5;entryY=0;entryDx=0;entryDy=0;entryPerimeter=0;" parent="1" source="27" edge="1">
          <mxGeometry relative="1" as="geometry">
            <mxPoint y="121" as="offset" />
            <Array as="points" />
            <mxPoint x="1460" y="1120" as="targetPoint" />
          </mxGeometry>
        </mxCell>
        <mxCell id="29" style="vsdxID=67;edgeStyle=none;startArrow=none;endArrow=none;startSize=5;endSize=5;strokeColor=#000000;spacingTop=0;spacingBottom=0;spacingLeft=0;spacingRight=0;verticalAlign=middle;html=1;labelBackgroundColor=#ffffff;rounded=1;exitX=0.5;exitY=1;exitDx=0;exitDy=0;exitPerimeter=0;entryX=0.5;entryY=0;entryDx=0;entryDy=0;entryPerimeter=0;" parent="1" edge="1">
          <mxGeometry relative="1" as="geometry">
            <mxPoint y="141" as="offset" />
            <Array as="points" />
            <mxPoint x="1300" y="1280" as="sourcePoint" />
            <mxPoint x="1300" y="1360" as="targetPoint" />
          </mxGeometry>
        </mxCell>
        <mxCell id="30" parent="1" vertex="1">
          <mxGeometry x="1180" y="1320" as="geometry" />
        </mxCell>
        <mxCell id="31" style="vsdxID=68;edgeStyle=none;startArrow=none;endArrow=none;startSize=5;endSize=5;strokeColor=#000000;spacingTop=0;spacingBottom=0;spacingLeft=0;spacingRight=0;verticalAlign=middle;html=1;labelBackgroundColor=#ffffff;rounded=1;entryX=0.5;entryY=0;entryDx=0;entryDy=0;entryPerimeter=0;" parent="1" source="30" edge="1">
          <mxGeometry relative="1" as="geometry">
            <mxPoint y="121" as="offset" />
            <Array as="points" />
            <mxPoint x="1180" y="1360" as="targetPoint" />
          </mxGeometry>
        </mxCell>
        <mxCell id="32" parent="1" vertex="1">
          <mxGeometry x="1420" y="1320" as="geometry" />
        </mxCell>
        <mxCell id="33" style="vsdxID=69;edgeStyle=none;startArrow=none;endArrow=none;startSize=5;endSize=5;strokeColor=#000000;spacingTop=0;spacingBottom=0;spacingLeft=0;spacingRight=0;verticalAlign=middle;html=1;labelBackgroundColor=#ffffff;rounded=1;entryX=0.5;entryY=0;entryDx=0;entryDy=0;entryPerimeter=0;" parent="1" source="32" edge="1">
          <mxGeometry relative="1" as="geometry">
            <mxPoint y="121" as="offset" />
            <Array as="points" />
            <mxPoint x="1420" y="1360" as="targetPoint" />
          </mxGeometry>
        </mxCell>
        <mxCell id="9XT9r78nwjrvNngH1mKg-38" value="其他" style="fontStyle=1;fontSize=25;" vertex="1" parent="1">
          <mxGeometry x="1180" y="960" width="240" height="80" as="geometry" />
        </mxCell>
        <mxCell id="9XT9r78nwjrvNngH1mKg-39" value="镜头&#xa;切换&#xa;与&#xa;锁定" style="fontStyle=1;fontSize=25;" vertex="1" parent="1">
          <mxGeometry x="1260" y="1360" width="80" height="160" as="geometry" />
        </mxCell>
        <mxCell id="9XT9r78nwjrvNngH1mKg-40" value="第一&#xa;人称&#xa;视角&#xa;镜头" style="fontStyle=1;fontSize=25;" vertex="1" parent="1">
          <mxGeometry x="1140" y="1360" width="80" height="160" as="geometry" />
        </mxCell>
        <mxCell id="9XT9r78nwjrvNngH1mKg-41" value="键盘&#xa;控制&#xa;移动" style="fontStyle=1;fontSize=25;" vertex="1" parent="1">
          <mxGeometry x="1420" y="1120" width="80" height="160" as="geometry" />
        </mxCell>
        <mxCell id="9XT9r78nwjrvNngH1mKg-42" value="镜头&#xa;控制" style="fontStyle=1;fontSize=25;" vertex="1" parent="1">
          <mxGeometry x="1260" y="1120" width="80" height="160" as="geometry" />
        </mxCell>
        <mxCell id="9XT9r78nwjrvNngH1mKg-43" value="样品&#xa;信息&#xa;查询" style="fontStyle=1;fontSize=25;" vertex="1" parent="1">
          <mxGeometry x="1100" y="1120" width="80" height="160" as="geometry" />
        </mxCell>
        <mxCell id="9XT9r78nwjrvNngH1mKg-44" value="点击&#xa;显示&#xa;位置&#xa;信息" style="fontStyle=1;fontSize=25;" vertex="1" parent="1">
          <mxGeometry x="820" y="1120" width="80" height="160" as="geometry" />
        </mxCell>
        <mxCell id="9XT9r78nwjrvNngH1mKg-45" value="样品&#xa;状态&#xa;信息&#xa;显示" style="fontStyle=1;fontSize=25;" vertex="1" parent="1">
          <mxGeometry x="660" y="1120" width="80" height="160" as="geometry" />
        </mxCell>
        <mxCell id="9XT9r78nwjrvNngH1mKg-46" value="第三&#xa;人称&#xa;视角&#xa;镜头" style="fontStyle=1;fontSize=25;" vertex="1" parent="1">
          <mxGeometry x="1380" y="1360" width="80" height="160" as="geometry" />
        </mxCell>
      </root>
    </mxGraphModel>
  </diagram>
</mxfile>
